<svg width="430" height="217" viewBox="0 0 430 217" fill="none" xmlns="http://www.w3.org/2000/svg">
<path d="M101.57 4.91988C98.695 1.63988 95.04 0.00488281 90.6 0.00488281H0V108.305H45.225V83.1949H90.6C95.04 83.1949 98.695 81.5299 101.57 78.1999C104.44 74.8749 105.88 70.7399 105.88 65.7999V17.3949C105.88 12.3549 104.44 8.19488 101.57 4.91988ZM45.23 25.1099H54.155C57.075 25.1099 59.09 26.5249 60.2 29.3449C61.31 32.1699 61.865 36.2499 61.865 41.5949C61.865 46.9399 61.285 51.0249 60.13 53.8449C58.97 56.6699 56.975 58.0799 54.155 58.0799H45.23V25.1049V25.1099Z" fill="white"/>
<path d="M114.805 108.3V0H160.03V66.055C173.71 66.27 187.39 66.485 201.065 66.695C201.15 80.56 201.235 94.43 201.32 108.295H114.8L114.805 108.3Z" fill="white"/>
<path d="M114.805 108.305H67.0854L45.3604 130.03C45.3854 133.94 45.4054 137.85 45.4304 141.76C56.4304 141.935 66.2203 141.39 77.2203 141.56C77.2203 159.265 77.7404 196.285 77.7404 213.99H115.69L114.805 108.305Z" fill="white"/>
<path d="M222.045 108.3C217.605 108.3 213.955 106.635 211.08 103.31C208.205 99.985 206.77 95.85 206.77 90.905V0H251.995V72.605C251.995 76.135 252.905 78.68 254.715 80.245C256.53 81.81 259 82.59 262.125 82.59C265.25 82.59 267.545 81.835 269.31 80.32C271.075 78.805 271.955 76.29 271.955 72.755V0H314.305V90.905C314.305 95.845 312.87 99.98 309.995 103.31C307.12 106.64 303.465 108.3 299.03 108.3H222.04H222.045Z" fill="white"/>
<path d="M338.21 108.3C333.77 108.3 330.12 106.635 327.245 103.31C324.37 99.985 322.935 95.85 322.935 90.905V74.115H367.705V78.655C367.705 81.28 368.36 83.345 369.67 84.855C370.98 86.37 373.2 87.125 376.325 87.125C379.45 87.125 381.72 86.37 382.83 84.855C383.94 83.34 384.495 81.48 384.495 79.26C384.495 76.64 383.915 74.7 382.755 73.435C381.595 72.175 379.4 71.295 376.175 70.79L338.51 64.89C333.87 64.085 330.14 62.09 327.315 58.915C324.49 55.74 323.08 51.48 323.08 46.135V17.395C323.08 12.355 324.515 8.19499 327.39 4.91499C330.265 1.63999 333.92 0 338.355 0H413.985C418.42 0 422.075 1.63999 424.95 4.91499C427.825 8.19499 429.26 12.355 429.26 17.395V34.185H384.64V29.645C384.64 27.025 384.01 24.955 382.75 23.445C381.49 21.93 379.245 21.175 376.02 21.175C372.795 21.175 370.75 21.855 369.59 23.215C368.43 24.575 367.85 26.315 367.85 28.435C367.85 30.555 368.405 32.345 369.515 33.5C370.625 34.66 372.84 35.495 376.17 35.995L413.835 41.895C418.575 42.6 422.33 44.67 425.105 48.095C427.88 51.525 429.265 56.06 429.265 61.71V90.905C429.265 95.845 427.83 99.98 424.955 103.31C422.08 106.64 418.425 108.3 413.99 108.3H338.21Z" fill="white"/>
<path d="M146.165 216.2C142.205 216.2 138.945 214.715 136.385 211.75C133.82 208.78 132.54 205.095 132.54 200.685V135.115C132.54 130.62 133.82 126.91 136.385 123.985C138.95 121.065 142.21 119.6 146.165 119.6H216.185C220.14 119.6 223.405 121.065 225.965 123.985C228.53 126.91 229.81 130.62 229.81 135.115V200.685C229.81 205.095 228.53 208.78 225.965 211.75C223.4 214.72 220.14 216.2 216.185 216.2H146.165ZM181.245 194.345C183.76 194.345 185.74 193.83 187.18 192.795C188.62 191.76 189.34 189.985 189.34 187.465V148.475C189.34 145.96 188.6 144.16 187.115 143.08C185.63 142 183.585 141.46 180.975 141.46C178.365 141.46 176.475 141.98 175.04 143.01C173.6 144.045 172.88 145.82 172.88 148.34V187.33C172.88 189.85 173.645 191.645 175.175 192.725C176.705 193.805 178.725 194.345 181.245 194.345Z" fill="white"/>
<path d="M238.72 216.2V119.6H275.82L290.93 137.815L301.59 150.63H302.265V119.6H333.565V216.2H299.16L282.16 195.02L270.555 180.45H269.88V216.205H238.715L238.72 216.2Z" fill="white"/>
<path d="M343.275 216.2V119.6H426.655V142.94H383.345V155.62H420.985V177.61H383.345V192.855H426.655V216.195H343.275V216.2Z" fill="white"/>
</svg>
