<svg width="312" height="224" viewBox="0 0 312 224" fill="none" xmlns="http://www.w3.org/2000/svg">
<path d="M30.7287 96V82.5091L15.7033 53.801H23.8874L34.0535 75.9235H34.3732L44.5393 53.801H52.7233L37.6979 82.4452V96H30.7287ZM65.5164 96.8312C62.3195 96.8312 59.4849 96.1492 57.0127 94.7852C54.5404 93.4212 52.601 91.4391 51.1943 88.839C49.8303 86.2388 49.1483 83.0419 49.1483 79.2483C49.1483 75.3694 49.8729 72.1512 51.3222 69.5937C52.7715 67.0361 54.7109 65.118 57.1405 63.8393C59.6128 62.5605 62.3835 61.9211 65.4525 61.9211C68.6067 61.9211 71.42 62.5818 73.8923 63.9032C76.3645 65.2246 78.304 67.1853 79.7106 69.7855C81.1599 72.3856 81.8845 75.6251 81.8845 79.504C81.8845 83.3403 81.1599 86.5585 79.7106 89.1586C78.304 91.7162 76.3645 93.6343 73.8923 94.9131C71.42 96.1918 68.6281 96.8312 65.5164 96.8312ZM65.7722 91.3325C67.6903 91.3325 69.3314 90.885 70.6954 89.9898C72.0594 89.0947 73.1037 87.7733 73.8283 86.0257C74.553 84.2781 74.9153 82.1894 74.9153 79.7598C74.9153 77.2449 74.5317 75.0923 73.7644 73.3021C72.9971 71.4692 71.8889 70.0625 70.4396 69.0822C69.033 68.1018 67.3067 67.6116 65.2607 67.6116C63.4278 67.6116 61.808 68.0592 60.4014 68.9543C59.0374 69.8068 57.9931 71.1069 57.2684 72.8545C56.5438 74.5595 56.1815 76.6481 56.1815 79.1204C56.1815 82.9993 57.034 86.0044 58.739 88.1356C60.444 90.2669 62.7884 91.3325 65.7722 91.3325ZM97.2626 96.8312C93.5115 96.8312 90.677 95.5524 88.7588 92.9949C86.8407 90.3948 85.8816 86.4946 85.8816 81.2943V62.7523H92.8509V80.527C92.8509 84.0223 93.3837 86.6224 94.4493 88.3275C95.5149 90.0325 97.1986 90.885 99.5004 90.885C100.779 90.885 101.909 90.5653 102.889 89.9259C103.869 89.2865 104.722 88.3914 105.447 87.2405C106.214 86.0896 106.811 84.7469 107.237 83.2124C107.706 81.6353 108.025 79.909 108.196 78.0335V62.7523H115.101V82.1894V96H109.219L109.539 85.4503H108.452C107.898 88.093 107.109 90.2669 106.086 91.9719C105.106 93.6343 103.869 94.8704 102.378 95.6803C100.928 96.4476 99.2233 96.8312 97.2626 96.8312ZM121.472 96V78.6728V62.7523H127.482L127.162 74.2611H128.249C128.633 71.661 129.229 69.4445 130.039 67.6116C130.849 65.7787 131.957 64.3934 133.364 63.4556C134.771 62.4752 136.518 61.9851 138.607 61.9851C139.033 61.9851 139.502 62.0064 140.014 62.049C140.525 62.0916 141.1 62.2195 141.74 62.4326L141.42 69.7215C140.781 69.4658 140.12 69.2953 139.438 69.21C138.756 69.0822 138.138 69.0182 137.584 69.0182C135.879 69.0182 134.43 69.5084 133.236 70.4888C132.043 71.4265 131.041 72.7479 130.231 74.4529C129.464 76.1153 128.867 78.0548 128.441 80.2713V96H121.472ZM24.4628 141.404V135.714H34.6289C38.3373 135.714 41.108 134.989 42.9408 133.54C44.8164 132.091 45.7541 129.704 45.7541 126.379C45.7541 123.395 44.8803 121.157 43.1327 119.665C41.4277 118.173 38.7849 117.428 35.2044 117.428H24.4628V111.801H35.3322C38.1029 111.801 40.5538 112.121 42.6851 112.76C44.859 113.399 46.6919 114.337 48.1838 115.573C49.7183 116.809 50.8691 118.365 51.6364 120.241C52.4463 122.074 52.8512 124.205 52.8512 126.635C52.8512 129.831 52.1266 132.538 50.6773 134.755C49.2281 136.929 47.0755 138.591 44.2196 139.742C41.4063 140.85 37.9111 141.404 33.7338 141.404H24.4628ZM20.2429 154V111.801H27.2121V154H20.2429ZM56.7469 154V108.924H63.5883V154H56.7469ZM80.841 154.831C77.09 154.831 74.2554 153.552 72.3373 150.995C70.4191 148.395 69.4601 144.495 69.4601 139.294V120.752H76.4293V138.527C76.4293 142.022 76.9621 144.622 78.0278 146.327C79.0934 148.032 80.7771 148.885 83.0788 148.885C84.3576 148.885 85.4872 148.565 86.4675 147.926C87.4479 147.287 88.3004 146.391 89.0251 145.241C89.7923 144.09 90.3891 142.747 90.8153 141.212C91.2842 139.635 91.6039 137.909 91.7744 136.033V120.752H98.6797V140.189V154H92.7974L93.1171 143.45H92.0301C91.476 146.093 90.6874 148.267 89.6644 149.972C88.6841 151.634 87.4479 152.87 85.956 153.68C84.5068 154.448 82.8018 154.831 80.841 154.831ZM117.71 154.831C115.408 154.831 113.362 154.597 111.572 154.128C109.781 153.659 108.247 152.998 106.968 152.146C105.732 151.251 104.773 150.185 104.091 148.949C103.409 147.713 103.004 146.37 102.876 144.921L108.503 143.067C108.503 144.303 108.886 145.411 109.654 146.391C110.421 147.372 111.508 148.139 112.914 148.693C114.364 149.205 116.09 149.46 118.093 149.46C120.438 149.46 122.249 149.077 123.528 148.31C124.807 147.542 125.446 146.477 125.446 145.113C125.446 144.09 125.084 143.28 124.359 142.683C123.677 142.086 122.676 141.596 121.354 141.212C120.075 140.829 118.562 140.466 116.815 140.125C115.237 139.784 113.66 139.401 112.083 138.975C110.549 138.506 109.121 137.909 107.799 137.184C106.521 136.46 105.476 135.522 104.666 134.371C103.899 133.178 103.515 131.686 103.515 129.895C103.515 127.849 104.048 126.102 105.114 124.653C106.18 123.161 107.714 122.01 109.717 121.2C111.763 120.347 114.193 119.921 117.006 119.921C119.734 119.921 122.079 120.326 124.04 121.136C126.043 121.946 127.641 123.075 128.835 124.525C130.028 125.974 130.753 127.679 131.009 129.64L125.126 131.366C125.041 130.045 124.636 128.936 123.912 128.041C123.23 127.146 122.292 126.485 121.098 126.059C119.905 125.59 118.498 125.356 116.878 125.356C114.747 125.356 113.064 125.739 111.827 126.507C110.634 127.274 110.037 128.318 110.037 129.64C110.037 130.663 110.399 131.494 111.124 132.133C111.891 132.73 112.914 133.22 114.193 133.604C115.514 133.945 117.006 134.286 118.669 134.627C120.374 134.968 122.015 135.351 123.592 135.778C125.169 136.204 126.576 136.779 127.812 137.504C129.091 138.186 130.092 139.124 130.817 140.317C131.584 141.468 131.968 142.939 131.968 144.729C131.968 146.903 131.371 148.757 130.178 150.292C129.027 151.783 127.386 152.913 125.254 153.68C123.123 154.448 120.608 154.831 117.71 154.831ZM154.163 154.831C151.094 154.831 148.366 154.341 145.979 153.361C143.634 152.338 141.631 150.888 139.969 149.013C138.349 147.137 137.113 144.857 136.26 142.171C135.45 139.486 135.045 136.46 135.045 133.092C135.045 128.148 135.877 124.056 137.539 120.816C139.201 117.534 141.482 115.083 144.38 113.463C147.279 111.801 150.582 110.97 154.291 110.97C157.189 110.97 159.811 111.46 162.155 112.44C164.499 113.378 166.503 114.806 168.165 116.724C169.87 118.6 171.17 120.923 172.065 123.693C172.96 126.421 173.408 129.533 173.408 133.028C173.408 136.438 172.982 139.507 172.129 142.235C171.277 144.921 170.019 147.201 168.357 149.077C166.695 150.952 164.67 152.38 162.283 153.361C159.938 154.341 157.232 154.831 154.163 154.831ZM154.291 149.013C156.848 149.013 159.022 148.395 160.812 147.159C162.603 145.923 163.967 144.154 164.904 141.852C165.842 139.507 166.311 136.652 166.311 133.284C166.311 129.831 165.821 126.89 164.84 124.461C163.903 122.031 162.517 120.177 160.684 118.898C158.894 117.577 156.72 116.916 154.163 116.916C151.691 116.916 149.538 117.555 147.705 118.834C145.915 120.07 144.529 121.882 143.549 124.269C142.611 126.656 142.142 129.597 142.142 133.092C142.142 135.65 142.42 137.93 142.974 139.934C143.528 141.894 144.316 143.557 145.339 144.921C146.362 146.242 147.62 147.265 149.112 147.99C150.646 148.672 152.373 149.013 154.291 149.013ZM178.703 154V133.54V120.752H184.714L184.33 131.11H185.417C186.014 128.553 186.802 126.464 187.783 124.844C188.806 123.182 190.084 121.946 191.619 121.136C193.196 120.326 195.029 119.921 197.118 119.921C200.826 119.921 203.639 121.242 205.557 123.885C207.518 126.528 208.498 130.556 208.498 135.97V154H201.465V136.673C201.465 132.964 200.911 130.258 199.803 128.553C198.695 126.805 197.032 125.931 194.816 125.931C192.898 125.931 191.257 126.549 189.893 127.785C188.571 128.979 187.548 130.556 186.824 132.517C186.099 134.478 185.694 136.609 185.609 138.911V154H178.703ZM229.048 154.831C226.405 154.831 224.061 154.448 222.015 153.68C219.969 152.87 218.242 151.741 216.836 150.292C215.429 148.8 214.364 147.031 213.639 144.985C212.914 142.896 212.552 140.552 212.552 137.952C212.552 135.351 212.914 132.964 213.639 130.791C214.364 128.574 215.387 126.656 216.708 125.036C218.072 123.416 219.734 122.159 221.695 121.264C223.699 120.369 225.958 119.921 228.473 119.921C230.817 119.921 232.906 120.305 234.738 121.072C236.614 121.839 238.191 123.011 239.47 124.589C240.749 126.123 241.708 128.063 242.347 130.407C242.986 132.709 243.221 135.415 243.05 138.527L217.028 138.719V134.371L238.958 134.179L236.529 136.865C236.784 134.307 236.571 132.197 235.889 130.535C235.207 128.872 234.227 127.636 232.948 126.826C231.669 126.017 230.199 125.612 228.536 125.612C226.661 125.612 225.02 126.102 223.613 127.082C222.249 128.02 221.184 129.405 220.416 131.238C219.649 133.071 219.265 135.266 219.265 137.824C219.265 141.66 220.118 144.559 221.823 146.519C223.528 148.437 225.958 149.396 229.112 149.396C230.433 149.396 231.563 149.247 232.501 148.949C233.438 148.608 234.227 148.182 234.866 147.67C235.506 147.116 236.017 146.477 236.401 145.752C236.827 144.985 237.168 144.196 237.424 143.386L243.498 144.793C243.114 146.37 242.518 147.777 241.708 149.013C240.94 150.206 239.96 151.251 238.767 152.146C237.573 152.998 236.166 153.659 234.547 154.128C232.97 154.597 231.137 154.831 229.048 154.831ZM20.2429 212V169.801H27.34V212H20.2429ZM46.8036 212.831C44.5018 212.831 42.4558 212.597 40.6656 212.128C38.8753 211.659 37.3408 210.998 36.062 210.146C34.8259 209.251 33.8668 208.185 33.1848 206.949C32.5028 205.713 32.0979 204.37 31.97 202.921L37.5965 201.067C37.5965 202.303 37.9802 203.411 38.7474 204.391C39.5147 205.372 40.6016 206.139 42.0083 206.693C43.4575 207.205 45.1838 207.46 47.1872 207.46C49.5316 207.46 51.3432 207.077 52.6219 206.31C53.9007 205.542 54.5401 204.477 54.5401 203.113C54.5401 202.09 54.1778 201.28 53.4531 200.683C52.7711 200.086 51.7694 199.596 50.4481 199.212C49.1693 198.829 47.6561 198.466 45.9085 198.125C44.3313 197.784 42.7542 197.401 41.1771 196.975C39.6426 196.506 38.2146 195.909 36.8932 195.184C35.6145 194.46 34.5701 193.522 33.7603 192.371C32.993 191.178 32.6094 189.686 32.6094 187.895C32.6094 185.849 33.1422 184.102 34.2078 182.653C35.2735 181.161 36.808 180.01 38.8114 179.2C40.8574 178.347 43.287 177.921 46.1003 177.921C48.8283 177.921 51.1727 178.326 53.1334 179.136C55.1368 179.946 56.7353 181.075 57.9288 182.525C59.1223 183.974 59.8469 185.679 60.1027 187.64L54.2204 189.366C54.1351 188.045 53.7302 186.936 53.0056 186.041C52.3236 185.146 51.3858 184.485 50.1923 184.059C48.9988 183.59 47.5922 183.356 45.9724 183.356C43.8411 183.356 42.1574 183.739 40.9213 184.507C39.7278 185.274 39.1311 186.318 39.1311 187.64C39.1311 188.663 39.4934 189.494 40.218 190.133C40.9852 190.73 42.0083 191.22 43.287 191.604C44.6084 191.945 46.1003 192.286 47.7627 192.627C49.4677 192.968 51.1087 193.351 52.6859 193.778C54.263 194.204 55.6696 194.779 56.9058 195.504C58.1845 196.186 59.1862 197.124 59.9109 198.317C60.6781 199.468 61.0617 200.939 61.0617 202.729C61.0617 204.903 60.465 206.757 59.2715 208.292C58.1206 209.783 56.4795 210.913 54.3483 211.68C52.217 212.448 49.7021 212.831 46.8036 212.831ZM85.0544 212L74.8883 169.801H82.433L90.1055 205.798H90.7449L98.9929 169.801H108.2L116.384 205.798H117.023L124.888 169.801H132.113L121.691 212H111.844L103.852 176.003H103.277L95.1566 212H85.0544ZM141.495 212.831C139.662 212.831 138.021 212.49 136.571 211.808C135.122 211.084 133.971 210.018 133.119 208.611C132.309 207.205 131.904 205.457 131.904 203.368C131.904 201.706 132.202 200.278 132.799 199.085C133.438 197.848 134.376 196.825 135.612 196.016C136.891 195.163 138.511 194.481 140.472 193.97C142.432 193.415 144.755 192.947 147.441 192.563C148.933 192.35 150.147 192.137 151.085 191.924C152.066 191.71 152.769 191.369 153.195 190.901C153.664 190.432 153.899 189.728 153.899 188.791C153.899 187.341 153.387 186.105 152.364 185.082C151.384 184.017 149.785 183.484 147.569 183.484C146.333 183.484 145.096 183.697 143.86 184.123C142.667 184.549 141.622 185.253 140.727 186.233C139.875 187.171 139.299 188.45 139.001 190.069L132.735 188.087C133.119 186.467 133.737 185.04 134.589 183.803C135.442 182.525 136.507 181.459 137.786 180.607C139.065 179.711 140.536 179.051 142.198 178.624C143.903 178.156 145.757 177.921 147.76 177.921C150.702 177.921 153.131 178.411 155.049 179.392C156.968 180.372 158.395 181.885 159.333 183.931C160.314 185.935 160.804 188.513 160.804 191.668V198.445C160.804 199.852 160.825 201.344 160.868 202.921C160.953 204.455 161.038 206.011 161.123 207.588C161.251 209.123 161.401 210.593 161.571 212H155.241C155.113 210.721 154.985 209.4 154.858 208.036C154.772 206.672 154.687 205.287 154.602 203.88H153.643C153.046 205.5 152.194 206.992 151.085 208.356C150.02 209.72 148.677 210.806 147.057 211.616C145.48 212.426 143.626 212.831 141.495 212.831ZM143.924 207.46C144.819 207.46 145.714 207.311 146.61 207.013C147.547 206.714 148.464 206.267 149.359 205.67C150.297 205.031 151.149 204.221 151.916 203.241C152.726 202.26 153.43 201.088 154.026 199.724L153.962 193.714L155.625 194.033C154.9 194.673 153.984 195.163 152.876 195.504C151.81 195.845 150.638 196.122 149.359 196.335C148.08 196.506 146.801 196.719 145.523 196.975C144.287 197.188 143.136 197.507 142.07 197.934C141.047 198.317 140.216 198.871 139.576 199.596C138.98 200.321 138.681 201.322 138.681 202.601C138.681 204.178 139.171 205.393 140.152 206.246C141.132 207.055 142.39 207.46 143.924 207.46ZM166.902 212V178.752H173.808V212H166.902ZM170.355 173.19C168.863 173.19 167.734 172.891 166.966 172.295C166.199 171.655 165.815 170.717 165.815 169.481C165.815 168.288 166.199 167.371 166.966 166.732C167.734 166.093 168.863 165.773 170.355 165.773C171.89 165.773 173.04 166.093 173.808 166.732C174.575 167.371 174.959 168.288 174.959 169.481C174.959 170.717 174.575 171.655 173.808 172.295C173.04 172.891 171.89 173.19 170.355 173.19ZM191.249 212.703C187.967 212.703 185.516 211.808 183.896 210.018C182.319 208.228 181.531 205.478 181.531 201.77V184.443H176.607L176.735 178.752H179.932C181.04 178.752 181.872 178.582 182.426 178.241C182.98 177.857 183.321 177.196 183.449 176.259L184.088 171.336H188.244V178.752H197.387V184.571H188.244V201.578C188.244 203.241 188.628 204.434 189.395 205.159C190.162 205.883 191.292 206.246 192.784 206.246C193.594 206.246 194.403 206.16 195.213 205.99C196.066 205.777 196.876 205.393 197.643 204.839V211.552C196.364 211.979 195.192 212.277 194.126 212.448C193.061 212.618 192.102 212.703 191.249 212.703ZM201.344 212V178.752H208.249V212H201.344ZM204.797 173.19C203.305 173.19 202.175 172.891 201.408 172.295C200.641 171.655 200.257 170.717 200.257 169.481C200.257 168.288 200.641 167.371 201.408 166.732C202.175 166.093 203.305 165.773 204.797 165.773C206.331 165.773 207.482 166.093 208.249 166.732C209.016 167.371 209.4 168.288 209.4 169.481C209.4 170.717 209.016 171.655 208.249 172.295C207.482 172.891 206.331 173.19 204.797 173.19ZM214.693 212V191.54V178.752H220.704L220.32 189.11H221.407C222.004 186.553 222.792 184.464 223.773 182.844C224.796 181.182 226.074 179.946 227.609 179.136C229.186 178.326 231.019 177.921 233.108 177.921C236.816 177.921 239.629 179.242 241.547 181.885C243.508 184.528 244.488 188.556 244.488 193.97V212H237.455V194.673C237.455 190.964 236.901 188.258 235.793 186.553C234.685 184.805 233.022 183.931 230.806 183.931C228.888 183.931 227.247 184.549 225.883 185.785C224.561 186.979 223.538 188.556 222.814 190.517C222.089 192.478 221.684 194.609 221.599 196.911V212H214.693ZM263.056 223.381C259.475 223.381 256.534 223.104 254.233 222.55C251.973 221.996 250.311 221.164 249.245 220.056C248.18 218.948 247.647 217.584 247.647 215.964C247.647 214.003 248.414 212.405 249.949 211.169C251.483 209.89 253.806 209.08 256.918 208.739V207.46C254.616 207.503 252.869 207.269 251.675 206.757C250.524 206.203 249.949 205.35 249.949 204.2C249.949 203.006 250.524 202.004 251.675 201.194C252.869 200.342 254.787 199.596 257.429 198.957V197.742C254.829 197.657 252.826 196.847 251.419 195.312C250.013 193.778 249.309 191.817 249.309 189.43C249.309 187.256 249.885 185.359 251.036 183.739C252.229 182.077 253.955 180.798 256.215 179.903C258.516 178.965 261.287 178.497 264.527 178.497H280.575V184.123L270.281 182.589V183.867C272.838 184.336 274.757 185.146 276.035 186.297C277.314 187.448 277.953 189.004 277.953 190.964C277.953 192.712 277.399 194.268 276.291 195.632C275.225 196.996 273.648 198.062 271.56 198.829C269.471 199.553 266.914 199.916 263.887 199.916C263.333 199.916 262.736 199.894 262.097 199.852C261.457 199.809 260.52 199.703 259.284 199.532C258.261 200.171 257.429 200.768 256.79 201.322C256.193 201.877 255.895 202.367 255.895 202.793C255.895 203.219 256.151 203.56 256.662 203.816C257.216 204.072 257.898 204.242 258.708 204.327C259.518 204.413 260.285 204.455 261.01 204.455H269.194C270.046 204.455 271.133 204.541 272.455 204.711C273.776 204.839 275.098 205.18 276.419 205.734C277.74 206.288 278.849 207.162 279.744 208.356C280.639 209.506 281.086 211.126 281.086 213.215C281.086 215.602 280.404 217.541 279.04 219.033C277.676 220.525 275.652 221.612 272.966 222.294C270.281 223.019 266.977 223.381 263.056 223.381ZM263.504 217.69C266.232 217.69 268.427 217.52 270.089 217.179C271.751 216.881 272.966 216.369 273.734 215.644C274.501 214.92 274.884 214.003 274.884 212.895C274.884 211.872 274.629 211.084 274.117 210.529C273.606 209.933 272.966 209.528 272.199 209.315C271.474 209.059 270.728 208.91 269.961 208.867C269.194 208.824 268.533 208.803 267.979 208.803H260.371C258.111 209.187 256.534 209.847 255.639 210.785C254.744 211.68 254.296 212.682 254.296 213.79C254.296 214.856 254.68 215.666 255.447 216.22C256.215 216.817 257.28 217.2 258.644 217.371C260.051 217.584 261.671 217.69 263.504 217.69ZM263.951 195.824C266.423 195.824 268.278 195.291 269.514 194.225C270.792 193.117 271.432 191.668 271.432 189.877C271.432 187.959 270.792 186.404 269.514 185.21C268.235 183.974 266.338 183.356 263.823 183.356C261.351 183.356 259.454 183.953 258.133 185.146C256.854 186.34 256.215 187.853 256.215 189.686C256.215 190.922 256.513 192.009 257.11 192.947C257.706 193.842 258.559 194.545 259.667 195.056C260.818 195.568 262.246 195.824 263.951 195.824ZM286.322 200.171L284.34 169.801H292.588L290.67 200.171H286.322ZM288.432 212.767C286.855 212.767 285.683 212.426 284.916 211.744C284.148 211.062 283.765 209.997 283.765 208.547C283.765 207.055 284.148 205.969 284.916 205.287C285.683 204.605 286.855 204.264 288.432 204.264C290.052 204.264 291.267 204.605 292.077 205.287C292.887 205.969 293.292 207.055 293.292 208.547C293.292 211.361 291.672 212.767 288.432 212.767Z" fill="black"/>
<circle cx="207.012" cy="62.0122" r="50" transform="rotate(16.2807 207.012 62.0122)" fill="#D3A7FF"/>
<circle cx="207.012" cy="62.0121" r="42.5484" transform="rotate(16.2807 207.012 62.0121)" fill="#D3A7FF" stroke="black" stroke-width="2"/>
<ellipse cx="198.696" cy="44.4607" rx="4.83871" ry="9.67742" transform="rotate(16.2807 198.696 44.4607)" fill="black"/>
<ellipse cx="222.229" cy="51.3337" rx="4.83871" ry="9.67742" transform="rotate(16.2807 222.229 51.3337)" fill="black"/>
<path d="M239.143 70.5141C234.836 85.2608 217 96.8545 198.421 91.4285C179.842 86.0025 169.581 68.5553 174.521 51.641" stroke="black" stroke-width="2"/>
<path d="M170.45 47.9733C170.488 48.9927 172.317 51.4759 174.371 51.807C176.425 52.138 178.72 50.7246 178.991 49.7957" stroke="black" stroke-width="2" stroke-linecap="round"/>
<path d="M235.565 66.6546C235.604 67.6739 237.433 70.1572 239.487 70.4882C241.541 70.8193 243.835 69.4059 244.107 68.477" stroke="black" stroke-width="2" stroke-linecap="round"/>
</svg>
